<svg width="100" height="100" viewBox="0 0 100 100" fill="none" xmlns="http://www.w3.org/2000/svg">
<g clip-path="url(#clip0_2_1470)">
<path d="M38.1433 74.9213C39.1089 74.2905 39.9818 74.0754 40.5817 74.0094C39.5054 72.3276 38.8576 70.17 38.8576 67.82C38.8576 62.4645 42.2196 58.1078 46.3524 58.1078C50.4851 58.1078 53.8465 62.4645 53.8465 67.82C53.8465 70.1704 53.1987 72.3279 52.1225 74.0097C52.7278 74.0765 53.5991 74.2926 54.5674 74.9255C55.8737 75.7713 57.0622 77.1982 58.0027 79.0481C58.4887 80.0101 58.9171 81.0954 59.2956 82.293H60.893C61.0006 82.1203 61.1064 81.942 61.2167 81.7756C63.5875 78.1779 65.9414 77.1643 66.8394 76.8948C66.3816 76.3392 65.976 75.7042 65.6354 74.9954C64.6161 72.8729 64.2967 70.3636 64.7341 67.9288C65.4999 63.6678 68.3904 60.6923 71.762 60.6923C72.3125 60.6923 72.8649 60.7742 73.404 60.9378C73.422 60.9434 73.4397 60.9505 73.4577 60.9561V52.9797H17.8604V82.293H33.3993C34.7919 77.8374 36.7416 75.8222 38.1433 74.9213Z" fill="url(#paint0_linear_2_1470)"/>
<path d="M79.1814 51.2138V49.4479V39.9123H70.8009V35.6488C71.8384 35.475 72.6405 34.3286 72.6405 32.9371C72.6405 31.4256 71.6951 30.2001 70.5283 30.2001C69.3622 30.2001 68.4162 31.4256 68.4162 32.9371C68.4162 34.3286 69.2183 35.4754 70.2558 35.6488V39.9123H65.6227V35.6488C66.6602 35.475 67.4623 34.3286 67.4623 32.9371C67.4623 31.4256 66.5169 30.2001 65.3501 30.2001C64.184 30.2001 63.238 31.4256 63.238 32.9371C63.238 34.3286 64.0401 35.4754 65.0776 35.6488V39.9123H60.6756V15.5434H59.0856V13.7334H52.1812V15.5434H50.5918V39.9123H48.8655V15.5434H47.2756V13.7334H40.3711V15.5434H38.7817V39.9123H37.0555V15.5434H35.4655V13.7334H28.5613V15.5434H26.9713V39.9123H22.9705V35.6488C24.0081 35.475 24.8101 34.3286 24.8101 32.9371C24.8101 31.4256 23.8647 30.2001 22.698 30.2001C21.5318 30.2001 20.5858 31.4256 20.5858 32.9371C20.5858 34.3286 21.3879 35.4754 22.4255 35.6488V39.9123H14V49.4479V51.2138H79.1814ZM52.1812 18.722H59.0856V20.3702H52.1812V18.722ZM52.1812 21.9888H59.0856V23.6371H52.1812V21.9888ZM52.1812 25.2556H59.0856V26.9042H52.1812V25.2556ZM52.1812 28.5228H59.0856V30.1711H52.1812V28.5228ZM52.1812 31.7897H59.0856V33.4379H52.1812V31.7897ZM52.1812 36.6603H59.0856V39.9123H52.1812V36.6603ZM40.3711 18.722H47.2756V20.3702H40.3711V18.722ZM40.3711 21.9888H47.2756V23.6371H40.3711V21.9888ZM40.3711 25.2556H47.2756V26.9042H40.3711V25.2556ZM40.3711 28.5228H47.2756V30.1711H40.3711V28.5228ZM40.3711 31.7897H47.2756V33.4379H40.3711V31.7897ZM40.3711 36.6603H47.2756V39.9123H40.3711V36.6603ZM28.5613 18.722H35.4652V20.3702H28.5613V18.722ZM28.5613 21.9888H35.4652V23.6371H28.5613V21.9888ZM28.5613 25.2556H35.4652V26.9042H28.5613V25.2556ZM28.5613 28.5228H35.4652V30.1711H28.5613V28.5228ZM28.5613 31.7897H35.4652V33.4379H28.5613V31.7897ZM28.5613 36.6603H35.4652V39.9123H28.5613V36.6603Z" fill="url(#paint1_linear_2_1470)"/>
<path d="M43.846 75.0717H48.8582C50.9949 73.8296 52.4843 71.0508 52.4843 67.8197C52.4843 63.4308 49.7394 59.8733 46.3523 59.8733C42.9657 59.8733 40.2202 63.4308 40.2202 67.8197C40.2202 71.0512 41.7096 73.8299 43.846 75.0717Z" fill="url(#paint2_linear_2_1470)"/>
<path d="M69.9211 77.2552C70.5008 77.1719 71.1268 77.1143 71.7656 77.1115C72.4066 77.1143 73.034 77.1719 73.6147 77.2559C75.4827 76.4486 76.9934 74.4408 77.4722 71.7733C78.2056 67.6899 76.2464 63.609 73.0956 62.6576C69.9442 61.7072 66.7954 64.2468 66.0611 68.3299C65.3684 72.1847 67.0772 76.0364 69.9211 77.2552Z" fill="url(#paint3_linear_2_1470)"/>
<path d="M59.3316 88.986C58.7743 84.9037 57.8997 82.0677 56.8649 80.019C55.9696 78.2577 54.922 77.1286 53.9547 76.5024C52.9875 75.8706 52.1391 75.7452 51.6556 75.7477C51.4809 75.7477 51.3485 75.7629 51.2623 75.7773H41.4437C41.3581 75.7636 41.2248 75.7473 41.0488 75.7473C40.5656 75.7456 39.7164 75.8713 38.7497 76.5028C37.2837 77.4447 35.7033 79.5054 34.5979 83.1565C33.4843 86.803 32.7354 92.0685 32.7236 100H37.0837C37.0842 91.5264 38.0408 86.7546 38.9819 84.2602V100H53.7239V84.2764C53.8852 84.7059 54.0479 85.1982 54.2087 85.7728C54.9727 88.5152 55.6145 93.0065 55.6199 99.9997H60.2866C61.5135 92.7829 63.2398 88.6275 64.7079 86.2768L62.6505 99.9997H80.8837L78.8275 86.286C78.8705 86.3549 78.9133 86.4184 78.9569 86.4905C80.3951 88.8726 82.0576 92.9956 83.2477 99.9997H86.8689C85.4855 91.2565 83.3521 86.0504 81.283 82.9252C78.9842 79.4373 76.7717 78.6818 76.1809 78.5593C75.6731 78.3965 73.8016 77.8261 71.7671 77.8176C69.7321 77.8258 67.8606 78.3965 67.3529 78.5593C66.762 78.6822 64.5504 79.4373 62.2513 82.9252C61.2628 84.4181 60.2604 86.3866 59.3316 88.986Z" fill="url(#paint4_linear_2_1470)"/>
</g>
<defs>
<linearGradient id="paint0_linear_2_1470" x1="-0.0102245" y1="52.9797" x2="77.3853" y2="75.2211" gradientUnits="userSpaceOnUse">
<stop stop-color="#FFAC30"/>
<stop offset="1" stop-color="#FD01A7"/>
</linearGradient>
<linearGradient id="paint1_linear_2_1470" x1="-6.95115" y1="13.7334" x2="84.902" y2="37.9364" gradientUnits="userSpaceOnUse">
<stop stop-color="#FFAC30"/>
<stop offset="1" stop-color="#FD01A7"/>
</linearGradient>
<linearGradient id="paint2_linear_2_1470" x1="36.2782" y1="59.8733" x2="54.4884" y2="62.0997" gradientUnits="userSpaceOnUse">
<stop stop-color="#FFAC30"/>
<stop offset="1" stop-color="#FD01A7"/>
</linearGradient>
<linearGradient id="paint3_linear_2_1470" x1="62.1405" y1="62.4583" x2="79.5505" y2="64.5473" gradientUnits="userSpaceOnUse">
<stop stop-color="#FFAC30"/>
<stop offset="1" stop-color="#FD01A7"/>
</linearGradient>
<linearGradient id="paint4_linear_2_1470" x1="15.3198" y1="75.7473" x2="88.5405" y2="100.515" gradientUnits="userSpaceOnUse">
<stop stop-color="#FFAC30"/>
<stop offset="1" stop-color="#FD01A7"/>
</linearGradient>
<clipPath id="clip0_2_1470">
<rect width="100" height="100" fill="white"/>
</clipPath>
</defs>
</svg>
