<svg width="96" height="95" viewBox="0 0 96 95" fill="none" xmlns="http://www.w3.org/2000/svg">
<path d="M47.9997 75.1042C46.831 75.1042 45.8833 76.0525 45.8833 77.2214C45.8833 78.3906 46.831 79.3386 47.9997 79.3386C49.1692 79.3386 50.1169 78.3906 50.1169 77.2214C50.1169 76.0525 49.1694 75.1042 47.9997 75.1042Z" fill="url(#paint0_linear_2_1433)"/>
<path d="M85.7461 67.6416H10.2541C4.89551 67.6416 0.551758 71.951 0.551758 77.3096C0.551758 82.6682 4.89551 86.9775 10.2541 86.9775H85.7463C91.1045 86.9775 95.4486 82.6682 95.4486 77.3096C95.4486 71.951 91.1043 67.6416 85.7461 67.6416ZM22.8826 82.3396C20.0562 82.3396 17.7652 80.0479 17.7652 77.2215C17.7652 74.3951 20.0562 72.1033 22.8826 72.1033C25.7098 72.1033 28.0008 74.3951 28.0008 77.2215C28.0008 80.0479 25.7096 82.3396 22.8826 82.3396ZM47.9996 82.3396C45.1732 82.3396 42.8822 80.0479 42.8822 77.2215C42.8822 74.3951 45.1732 72.1033 47.9996 72.1033C50.8268 72.1033 53.1178 74.3951 53.1178 77.2215C53.1178 80.0479 50.8268 82.3396 47.9996 82.3396ZM73.1172 82.3396C70.2904 82.3396 67.9994 80.0479 67.9994 77.2215C67.9994 74.3951 70.2904 72.1033 73.1172 72.1033C75.9439 72.1033 78.235 74.3951 78.235 77.2215C78.235 80.0479 75.9439 82.3396 73.1172 82.3396Z" fill="url(#paint1_linear_2_1433)"/>
<path d="M73.1172 79.3386C74.2865 79.3386 75.2344 78.3907 75.2344 77.2214C75.2344 76.0521 74.2865 75.1042 73.1172 75.1042C71.9479 75.1042 71 76.0521 71 77.2214C71 78.3907 71.9479 79.3386 73.1172 79.3386Z" fill="url(#paint2_linear_2_1433)"/>
<path d="M22.8828 79.3386C24.0521 79.3386 25 78.3907 25 77.2214C25 76.0521 24.0521 75.1042 22.8828 75.1042C21.7135 75.1042 20.7656 76.0521 20.7656 77.2214C20.7656 78.3907 21.7135 79.3386 22.8828 79.3386Z" fill="url(#paint3_linear_2_1433)"/>
<path d="M57.3643 92.251H27.3883C26.7207 92.251 26.1797 92.8533 26.1797 93.5205C26.1797 94.1877 26.7207 94.79 27.3883 94.79H57.3643C58.0314 94.79 58.5729 94.1877 58.5729 93.5205C58.5729 92.8533 58.0314 92.251 57.3643 92.251Z" fill="url(#paint4_linear_2_1433)"/>
<path d="M68.5915 92.251H63.8468C63.1796 92.251 62.6382 92.8533 62.6382 93.5205C62.6382 94.1877 63.1794 94.79 63.8468 94.79H68.5915C69.2587 94.79 69.8001 94.1877 69.8001 93.5205C69.8001 92.8533 69.2587 92.251 68.5915 92.251Z" fill="url(#paint5_linear_2_1433)"/>
<path d="M78.8087 55.4151C80.2323 55.9374 80.9468 56.6518 81.4694 58.0751C81.6927 58.6835 82.5413 58.6835 82.7646 58.0751C83.2868 56.6518 84.0013 55.9374 85.4253 55.4151C86.0333 55.1915 86.0333 54.3424 85.4253 54.1192C84.0013 53.5969 83.2868 52.8825 82.7646 51.4584C82.5413 50.8504 81.6927 50.8504 81.4694 51.4584C80.9468 52.8825 80.2323 53.5969 78.8087 54.1192C78.2005 54.3424 78.2005 55.1916 78.8087 55.4151Z" fill="url(#paint6_linear_2_1433)"/>
<path d="M14.4562 4.47979C15.8802 5.00205 16.5947 5.7165 17.1169 7.13975C17.3402 7.74814 18.1892 7.74814 18.4125 7.13975C18.9347 5.7165 19.6496 5.00205 21.0728 4.47979C21.6812 4.25615 21.6812 3.40713 21.0728 3.18389C19.6496 2.66162 18.9347 1.94717 18.4125 0.523145C18.1892 -0.0848633 17.3402 -0.0848633 17.1169 0.523145C16.5947 1.94717 15.8802 2.66162 14.4562 3.18389C13.8486 3.40713 13.8486 4.25615 14.4562 4.47979Z" fill="url(#paint7_linear_2_1433)"/>
<path d="M21.8298 20.6883C22.4257 20.9844 23.1523 20.7576 23.4499 20.1604C28.0345 10.9334 37.2779 5.20938 47.5734 5.20606C50.5478 5.20684 53.4335 5.65957 56.1455 6.56289C56.3099 5.75605 56.5917 4.9332 56.9728 4.23047C54.0046 3.23477 50.8449 2.60254 47.5871 2.60254C47.583 2.60254 47.5775 2.60254 47.5734 2.60254C47.5689 2.60254 47.5638 2.60254 47.5597 2.60254C36.3457 2.60254 26.2794 8.95449 21.2853 19.0045C20.988 19.6025 21.2322 20.3912 21.8298 20.6883Z" fill="url(#paint8_linear_2_1433)"/>
<path d="M20.6146 23.9925C19.9703 23.83 19.31 24.2179 19.1449 24.865C18.541 27.232 18.2344 29.6814 18.2344 32.1457C18.2344 34.6103 18.541 37.0597 19.1453 39.4267C19.2846 39.973 19.776 40.3365 20.3148 40.3365C20.4141 40.3365 20.5143 40.324 20.615 40.298C21.2613 40.1332 21.652 39.4752 21.4867 38.8283C20.9324 36.6574 20.6514 34.409 20.6514 32.1457C20.6514 29.8828 20.9324 27.6343 21.4871 25.4623C21.6518 24.8158 21.2611 24.1578 20.6146 23.9925Z" fill="url(#paint9_linear_2_1433)"/>
<path d="M47.5596 61.3917C47.5612 61.3917 47.5627 61.3917 47.5641 61.3917C47.5694 61.3917 47.577 61.3917 47.5825 61.3917C47.584 61.3917 47.5856 61.3917 47.587 61.3917C58.8006 61.3917 68.8668 55.1887 73.8614 45.1385C74.1584 44.5411 73.9143 43.8411 73.3166 43.544C72.7196 43.2471 71.9934 43.504 71.6965 44.1016C67.1116 53.3276 57.8682 59.0674 47.5731 59.071C37.2776 59.0674 28.0342 53.3379 23.4497 44.111C23.1522 43.5131 22.4254 43.271 21.8295 43.5684C21.2317 43.8653 20.9875 44.5399 21.2848 45.1378C26.2793 55.1881 36.3455 61.3917 47.5596 61.3917Z" fill="url(#paint10_linear_2_1433)"/>
<path d="M73.6597 25.4623C74.2144 27.6343 74.4955 29.8828 74.4955 32.1457C74.4955 34.4089 74.2144 36.6574 73.6601 38.8283C73.4949 39.4753 73.8855 40.1334 74.5318 40.298C74.6326 40.324 74.7328 40.3365 74.832 40.3365C75.3711 40.3365 75.8623 39.973 76.0015 39.4267C76.6058 37.0597 76.9125 34.6103 76.9125 32.1457C76.9125 29.6814 76.6058 27.232 76.0019 24.865C75.8371 24.2183 75.1787 23.8293 74.5322 23.9925C73.8857 24.1578 73.4951 24.8158 73.6597 25.4623Z" fill="url(#paint11_linear_2_1433)"/>
<path d="M64.2373 16.5166C65.8299 16.5166 67.3115 16.058 68.573 15.2768C69.7682 16.7721 70.8184 18.4102 71.6965 20.1775C71.9078 20.6025 72.3357 20.8486 72.7799 20.8486C72.9607 20.8486 73.1441 20.8082 73.3166 20.7221C73.9145 20.4252 74.1586 19.6998 73.8613 19.1023C72.8959 17.1584 71.7385 15.3594 70.4217 13.718C71.7084 12.2619 72.4953 10.3545 72.4953 8.2584C72.4953 3.69746 68.7977 0 64.2373 0C59.676 0 55.9785 3.69766 55.9785 8.2584C55.9785 12.8193 59.6762 16.5166 64.2373 16.5166ZM61.0193 6.89941H62.7896V5.04004C62.7896 4.37285 63.4896 3.83145 64.1568 3.83145C64.824 3.83145 65.524 4.37266 65.524 5.04004V6.89941H67.4547C68.1219 6.89941 68.6633 7.59941 68.6633 8.2666C68.6633 8.93379 68.1221 9.63379 67.4547 9.63379H65.524V11.4754C65.524 12.143 64.824 12.684 64.1568 12.684C63.4896 12.684 62.7896 12.143 62.7896 11.4754V9.63379H61.0193C60.3521 9.63379 59.8107 8.93379 59.8107 8.2666C59.8107 7.59941 60.3521 6.89941 61.0193 6.89941Z" fill="url(#paint12_linear_2_1433)"/>
<path d="M31.04 28.3264L45.8602 48.8061C46.1504 49.2055 46.5666 49.4908 47.0332 49.6125C47.2053 49.6549 47.3815 49.6816 47.5627 49.6816C47.7436 49.6816 47.9197 49.657 48.0922 49.615C48.5588 49.493 48.9791 49.2123 49.2648 48.8127L64.0891 28.3396C64.1563 28.2432 64.2066 28.1338 64.2275 28.0201C64.2783 27.802 64.2363 27.5703 64.11 27.3813L60.4994 21.8305C60.3441 21.5951 60.0795 21.3525 59.7979 21.3525H51.4926H43.6533H35.3484C35.0666 21.3525 34.8018 21.5953 34.6465 21.8307L31.158 27.1508L31.0359 27.3428C30.9098 27.532 30.8678 27.6025 30.9184 27.9932H30.8975C30.9184 27.9932 30.9691 28.2295 31.04 28.3264ZM56.8809 26.626H59.5012C60.1688 26.626 60.7098 27.1307 60.7098 27.7979C60.7098 28.465 60.1688 28.9697 59.5012 28.9697H56.8809C56.2137 28.9697 55.6723 28.465 55.6723 27.7979C55.6723 27.1307 56.2137 26.626 56.8809 26.626ZM35.7459 26.626H50.9758C51.6434 26.626 52.1844 27.1307 52.1844 27.7979C52.1844 28.465 51.6434 28.9697 50.9758 28.9697H35.7459C35.0787 28.9697 34.5373 28.465 34.5373 27.7979C34.5373 27.1307 35.0787 26.626 35.7459 26.626Z" fill="url(#paint13_linear_2_1433)"/>
<defs>
<linearGradient id="paint0_linear_2_1433" x1="44.5225" y1="75.1042" x2="50.7595" y2="76.0491" gradientUnits="userSpaceOnUse">
<stop stop-color="#FFAC30"/>
<stop offset="1" stop-color="#FD01A7"/>
</linearGradient>
<linearGradient id="paint1_linear_2_1433" x1="-29.9508" y1="67.6416" x2="62.1403" y2="136.121" gradientUnits="userSpaceOnUse">
<stop stop-color="#FFAC30"/>
<stop offset="1" stop-color="#FD01A7"/>
</linearGradient>
<linearGradient id="paint2_linear_2_1433" x1="69.6389" y1="75.1042" x2="75.8771" y2="76.0494" gradientUnits="userSpaceOnUse">
<stop stop-color="#FFAC30"/>
<stop offset="1" stop-color="#FD01A7"/>
</linearGradient>
<linearGradient id="paint3_linear_2_1433" x1="19.4046" y1="75.1042" x2="25.6427" y2="76.0494" gradientUnits="userSpaceOnUse">
<stop stop-color="#FFAC30"/>
<stop offset="1" stop-color="#FD01A7"/>
</linearGradient>
<linearGradient id="paint4_linear_2_1433" x1="15.7676" y1="92.251" x2="26.0742" y2="112.174" gradientUnits="userSpaceOnUse">
<stop stop-color="#FFAC30"/>
<stop offset="1" stop-color="#FD01A7"/>
</linearGradient>
<linearGradient id="paint5_linear_2_1433" x1="60.3361" y1="92.251" x2="69.4625" y2="96.1514" gradientUnits="userSpaceOnUse">
<stop stop-color="#FFAC30"/>
<stop offset="1" stop-color="#FD01A7"/>
</linearGradient>
<linearGradient id="paint6_linear_2_1433" x1="75.9326" y1="51.0024" x2="87.0241" y2="52.6829" gradientUnits="userSpaceOnUse">
<stop stop-color="#FFAC30"/>
<stop offset="1" stop-color="#FD01A7"/>
</linearGradient>
<linearGradient id="paint7_linear_2_1433" x1="11.5806" y1="0.0671389" x2="22.6719" y2="1.74757" gradientUnits="userSpaceOnUse">
<stop stop-color="#FFAC30"/>
<stop offset="1" stop-color="#FD01A7"/>
</linearGradient>
<linearGradient id="paint8_linear_2_1433" x1="9.64701" y1="2.60254" x2="59.2206" y2="17.3707" gradientUnits="userSpaceOnUse">
<stop stop-color="#FFAC30"/>
<stop offset="1" stop-color="#FD01A7"/>
</linearGradient>
<linearGradient id="paint9_linear_2_1433" x1="17.1767" y1="23.9556" x2="22.1309" y2="24.1063" gradientUnits="userSpaceOnUse">
<stop stop-color="#FFAC30"/>
<stop offset="1" stop-color="#FD01A7"/>
</linearGradient>
<linearGradient id="paint10_linear_2_1433" x1="4.17724" y1="43.4202" x2="70.6137" y2="73.0109" gradientUnits="userSpaceOnUse">
<stop stop-color="#FFAC30"/>
<stop offset="1" stop-color="#FD01A7"/>
</linearGradient>
<linearGradient id="paint11_linear_2_1433" x1="72.5644" y1="23.9553" x2="77.5186" y2="24.1061" gradientUnits="userSpaceOnUse">
<stop stop-color="#FFAC30"/>
<stop offset="1" stop-color="#FD01A7"/>
</linearGradient>
<linearGradient id="paint12_linear_2_1433" x1="50.1898" y1="6.84294e-07" x2="76.8735" y2="3.4924" gradientUnits="userSpaceOnUse">
<stop stop-color="#FFAC30"/>
<stop offset="1" stop-color="#FD01A7"/>
</linearGradient>
<linearGradient id="paint13_linear_2_1433" x1="20.1775" y1="21.3525" x2="68.8889" y2="30.0414" gradientUnits="userSpaceOnUse">
<stop stop-color="#FFAC30"/>
<stop offset="1" stop-color="#FD01A7"/>
</linearGradient>
</defs>
</svg>
