<svg width="100" height="100" viewBox="0 0 100 100" fill="none" xmlns="http://www.w3.org/2000/svg">
<g clip-path="url(#clip0_2_1453)">
<path d="M67.8516 24.1212C64.6289 24.9219 60.3906 32.3829 56.9922 38.379C54.1406 43.379 52.3438 46.4844 50.9766 47.0899C50.6641 47.2266 50.3125 47.3048 49.9609 47.3048C47.8516 47.3048 45.1953 44.8438 42.207 42.0508C39.668 39.6876 37.0703 37.2462 34.707 36.2696C30.4492 34.5313 21.0156 43.1837 17.5781 46.836V49.2774C17.5781 53.0665 20.6641 56.1524 24.4336 56.1524H74.3945C78.1836 56.1524 81.25 53.0665 81.25 49.2774V34.1407C80.293 33.2227 74.5117 27.6563 69.3359 24.3555C68.8672 24.0626 68.3984 23.9844 67.8516 24.1212Z" fill="url(#paint0_linear_2_1453)"/>
<path d="M53.6523 28.2031C52.0703 31.0937 49.082 32.8906 45.8398 32.8906C40.918 32.8906 36.8945 28.8672 36.8945 23.9062C36.8945 18.9648 40.8984 14.9219 45.8398 14.9219C46.7578 14.9219 47.6953 15.0977 48.7109 15.4297L50.2148 15.9375L48.7305 16.543C46.543 17.4414 45.1367 19.5508 45.1367 21.8945C45.1367 25.7422 48.9258 28.7891 52.9102 27.3047L54.4141 26.7383L53.6523 28.2031Z" fill="url(#paint1_linear_2_1453)"/>
<path d="M85 0H14.6484C8.78906 0 4.00391 4.78516 4.00391 10.625V59.668C4.00391 65.5078 8.78906 70.293 14.6484 70.293H85C90.8594 70.293 95.6445 65.5078 95.6445 59.668V10.625C95.6445 4.78516 90.8594 0 85 0ZM87.8711 54.9219C87.8711 59.9414 83.9258 62.6953 78.9062 62.6953H21.0938C16.0742 62.6953 11.6602 59.9609 11.6602 54.9414V16.8164C11.6602 11.7969 15.7812 7.85156 20.8008 7.85156H78.6133C83.6328 7.85156 87.8711 11.7773 87.8711 16.7969V54.9219Z" fill="url(#paint2_linear_2_1453)"/>
<path d="M39.5898 72.6758C39.7266 78.2031 44.1797 82.6563 49.6875 82.6563C55.1953 82.6563 59.668 78.2031 59.7852 72.6758H39.5898Z" fill="url(#paint3_linear_2_1453)"/>
<path d="M62.5781 99.6875L61.2891 99.9805C60.1953 100.234 59.0039 99.5508 58.6719 98.457L52.1875 77.5391C51.7969 76.2695 52.5195 74.9805 53.8086 74.6875L55.0977 74.3945C56.1914 74.1406 57.3828 74.8242 57.7148 75.918L64.1992 96.8555C64.6094 98.1055 63.8672 99.3945 62.5781 99.6875Z" fill="url(#paint4_linear_2_1453)"/>
<path d="M37.0706 99.6875L38.3596 99.9805C39.4534 100.234 40.6448 99.5508 40.9768 98.457L47.4807 77.5391C47.8713 76.2695 47.1487 74.9805 45.8596 74.6875L44.5706 74.3945C43.4768 74.1406 42.2854 74.8242 41.9534 75.918L35.469 96.8555C35.0588 98.1055 35.7815 99.3945 37.0706 99.6875Z" fill="url(#paint5_linear_2_1453)"/>
</g>
<defs>
<linearGradient id="paint0_linear_2_1453" x1="-2.88784" y1="24.0559" x2="85.1173" y2="50.5076" gradientUnits="userSpaceOnUse">
<stop stop-color="#FFAC30"/>
<stop offset="1" stop-color="#FD01A7"/>
</linearGradient>
<linearGradient id="paint1_linear_2_1453" x1="31.2633" y1="14.9219" x2="57.1019" y2="18.739" gradientUnits="userSpaceOnUse">
<stop stop-color="#FFAC30"/>
<stop offset="1" stop-color="#FD01A7"/>
</linearGradient>
<linearGradient id="paint2_linear_2_1453" x1="-25.452" y1="2.30716e-06" x2="107.467" y2="26.2555" gradientUnits="userSpaceOnUse">
<stop stop-color="#FFAC30"/>
<stop offset="1" stop-color="#FD01A7"/>
</linearGradient>
<linearGradient id="paint3_linear_2_1453" x1="33.0985" y1="72.6758" x2="60.9185" y2="81.2051" gradientUnits="userSpaceOnUse">
<stop stop-color="#FFAC30"/>
<stop offset="1" stop-color="#FD01A7"/>
</linearGradient>
<linearGradient id="paint4_linear_2_1453" x1="48.1502" y1="74.3416" x2="66.4871" y2="75.6642" gradientUnits="userSpaceOnUse">
<stop stop-color="#FFAC30"/>
<stop offset="1" stop-color="#FD01A7"/>
</linearGradient>
<linearGradient id="paint5_linear_2_1453" x1="31.4221" y1="74.3416" x2="49.7617" y2="75.6646" gradientUnits="userSpaceOnUse">
<stop stop-color="#FFAC30"/>
<stop offset="1" stop-color="#FD01A7"/>
</linearGradient>
<clipPath id="clip0_2_1453">
<rect width="100" height="100" fill="white"/>
</clipPath>
</defs>
</svg>
